<mxfile host="65bd71144e">
    <diagram id="BXz-laS0-NoQnFOKF535" name="Page-1">
        <mxGraphModel dx="853" dy="616" grid="1" gridSize="10" guides="1" tooltips="1" connect="1" arrows="1" fold="1" page="1" pageScale="1" pageWidth="850" pageHeight="1100" math="0" shadow="0">
            <root>
                <mxCell id="0"/>
                <mxCell id="1" parent="0"/>
                <mxCell id="17" value="" style="rounded=1;whiteSpace=wrap;html=1;fillColor=#FFFFFF;opacity=10;" vertex="1" parent="1">
                    <mxGeometry x="200" y="440" width="580" height="120" as="geometry"/>
                </mxCell>
                <mxCell id="13" value="" style="rounded=1;whiteSpace=wrap;html=1;fillColor=#FFFFFF;opacity=10;" vertex="1" parent="1">
                    <mxGeometry x="210" y="120" width="580" height="120" as="geometry"/>
                </mxCell>
                <mxCell id="15" value="" style="rounded=1;whiteSpace=wrap;html=1;fillColor=#FFFFFF;opacity=10;" vertex="1" parent="1">
                    <mxGeometry x="210" y="280" width="580" height="120" as="geometry"/>
                </mxCell>
                <mxCell id="8" value="" style="edgeStyle=none;html=1;strokeColor=#FFFFFF;" edge="1" parent="1" source="2" target="7">
                    <mxGeometry relative="1" as="geometry"/>
                </mxCell>
                <mxCell id="2" value="START" style="ellipse;whiteSpace=wrap;html=1;aspect=fixed;" vertex="1" parent="1">
                    <mxGeometry x="80" y="140" width="80" height="80" as="geometry"/>
                </mxCell>
                <mxCell id="10" value="" style="edgeStyle=none;html=1;strokeColor=#FFFFFF;" edge="1" parent="1" source="7" target="9">
                    <mxGeometry relative="1" as="geometry"/>
                </mxCell>
                <mxCell id="7" value="Send Transaction" style="whiteSpace=wrap;html=1;" vertex="1" parent="1">
                    <mxGeometry x="260" y="150" width="120" height="60" as="geometry"/>
                </mxCell>
                <mxCell id="12" value="" style="edgeStyle=none;html=1;strokeColor=#FFFFFF;" edge="1" parent="1" source="9" target="11">
                    <mxGeometry relative="1" as="geometry"/>
                </mxCell>
                <mxCell id="9" value="Validate and Sign" style="whiteSpace=wrap;html=1;" vertex="1" parent="1">
                    <mxGeometry x="260" y="310" width="120" height="60" as="geometry"/>
                </mxCell>
                <mxCell id="11" value="" style="whiteSpace=wrap;html=1;" vertex="1" parent="1">
                    <mxGeometry x="260" y="470" width="120" height="60" as="geometry"/>
                </mxCell>
                <mxCell id="14" value="&lt;b&gt;CLIENT&lt;/b&gt;" style="text;html=1;strokeColor=none;fillColor=none;align=center;verticalAlign=middle;whiteSpace=wrap;rounded=0;opacity=10;" vertex="1" parent="1">
                    <mxGeometry x="470" y="120" width="60" height="30" as="geometry"/>
                </mxCell>
                <mxCell id="16" value="&lt;b&gt;WALLET SERVER&lt;/b&gt;" style="text;html=1;strokeColor=none;fillColor=none;align=center;verticalAlign=middle;whiteSpace=wrap;rounded=0;opacity=10;" vertex="1" parent="1">
                    <mxGeometry x="435" y="280" width="130" height="30" as="geometry"/>
                </mxCell>
                <mxCell id="18" value="&lt;b&gt;MINER 1&lt;/b&gt;" style="text;html=1;strokeColor=none;fillColor=none;align=center;verticalAlign=middle;whiteSpace=wrap;rounded=0;opacity=10;" vertex="1" parent="1">
                    <mxGeometry x="425" y="440" width="130" height="30" as="geometry"/>
                </mxCell>
                <mxCell id="19" value="" style="rounded=1;whiteSpace=wrap;html=1;fillColor=#FFFFFF;opacity=10;" vertex="1" parent="1">
                    <mxGeometry x="200" y="600" width="580" height="120" as="geometry"/>
                </mxCell>
                <mxCell id="20" value="&lt;b&gt;MINER 2 &amp;amp; ....&lt;/b&gt;" style="text;html=1;strokeColor=none;fillColor=none;align=center;verticalAlign=middle;whiteSpace=wrap;rounded=0;opacity=10;" vertex="1" parent="1">
                    <mxGeometry x="435" y="600" width="130" height="30" as="geometry"/>
                </mxCell>
            </root>
        </mxGraphModel>
    </diagram>
</mxfile>